<svg id="Layer_1" data-name="Layer 1" xmlns="http://www.w3.org/2000/svg" viewBox="0 0 505 728"><defs><style>.cls-1{fill:#fff;}.cls-2{fill:none;stroke:#c70000;stroke-miterlimit:10;stroke-width:4px;}.cls-3{font-size:10.29px;fill:#c70000;font-family:FuturaPT-Book, Futura PT;}.cls-4{letter-spacing:-0.04em;}.cls-5{letter-spacing:-0.06em;}.cls-6{letter-spacing:-0.22em;}.cls-7{letter-spacing:-0.02em;}.cls-8{letter-spacing:-0.01em;}.cls-9{letter-spacing:-0.01em;}</style></defs><title>Artboard 1</title><path class="cls-1" d="M99.93,530c-.67-2.68-.67-30.78,0-33.46a1701.93,1701.93,0,0,0,112.41-127.8c-38.14-52.86-75.61-102.37-109.06-140.51-.67-2-.67-30.11,0-32.79h82.3c16.73,32.79,44.83,76.28,72.26,117.1,28.11-41.49,54.87-84.31,70.26-117.1h72.27c.66,2.68.66,30.78,0,32.79-31.45,31.45-71.6,77.62-109.07,124.45,38.81,54.2,77.62,105.06,111.74,143.86.67,2.68.67,30.78,0,33.46h-82.3c-18.07-34.13-46.84-79.63-76.28-121.11-28.1,42.82-56.2,87.65-72.26,121.11Z"/><line class="cls-2" x1="319.3" y1="349.14" x2="183.67" y2="375.77"/><line class="cls-2" x1="101.43" y1="178.5" x2="101.43" y2="262.35"/><line class="cls-2" x1="87.21" y1="195.44" x2="206.45" y2="195.44"/><line class="cls-2" x1="159.31" y1="432.24" x2="229.37" y2="432.11"/><line class="cls-2" x1="261.54" y1="433.52" x2="351.58" y2="433.8"/><text class="cls-3" transform="translate(175.57 426.41)"><tspan class="cls-4">8</tspan><tspan x="5.46" y="0">2 px wide </tspan></text><text class="cls-3" transform="translate(273.79 426.41)"><tspan class="cls-5">1</tspan><tspan x="5.2" y="0">05 px wide </tspan></text><text class="cls-3" transform="translate(210.34 350.61)"><tspan class="cls-6">1</tspan><tspan x="3.53" y="0">1 deg</tspan><tspan class="cls-7" x="27.56" y="0">r</tspan><tspan x="30.36" y="0">ee angle </tspan></text><text class="cls-3" transform="translate(106.6 212.91)"><tspan class="cls-8">d</tspan><tspan x="5.31" y="0">istinctive corne</tspan><tspan class="cls-9" x="63.56" y="0">r</tspan><tspan x="66.5" y="0">s</tspan></text></svg>